<?xml version="1.0" standalone="no"?>
<!DOCTYPE svg PUBLIC "-//W3C//DTD SVG 20010904//EN"
 "http://www.w3.org/TR/2001/REC-SVG-20010904/DTD/svg10.dtd">
<svg version="1.0" xmlns="http://www.w3.org/2000/svg"
 width="688.000000pt" height="688.000000pt" viewBox="0 0 688.000000 688.000000"
 preserveAspectRatio="xMidYMid meet">
<metadata>
Created by potrace 1.11, written by Peter Selinger 2001-2013
</metadata>
<g transform="translate(0.000000,688.000000) scale(0.100000,-0.100000)"
fill="#000000" stroke="none">
<path d="M258 6858 c-22 -12 -46 -38 -56 -59 -18 -37 -19 -131 -18 -2903 l1
-2865 21 -27 c11 -15 33 -37 48 -48 27 -21 29 -21 1603 -23 866 -1 1577 -3
1579 -5 1 -2 6 -116 9 -253 12 -533 14 -566 33 -599 39 -67 114 -92 185 -62
18 7 77 62 132 121 55 60 116 125 135 146 67 72 237 254 264 284 106 115 240
258 291 310 l60 61 1010 -1 c569 -1 1025 3 1045 8 51 13 87 52 99 106 7 32 10
933 8 2886 l-2 2840 -23 36 c-46 75 257 69 -3245 69 l-3142 0 -37 -22z m6152
-313 c1 -52 1 -5240 0 -5282 l0 -33 -981 0 c-865 0 -985 -2 -1014 -15 -28 -14
-76 -62 -230 -230 -42 -45 -261 -279 -340 -363 -38 -41 -74 -80 -78 -88 -19
-33 -25 -7 -27 114 -8 426 -10 462 -32 502 -11 19 -31 44 -46 55 -27 20 -45
20 -1602 23 -904 1 -1576 6 -1580 11 -4 7 -5 5235 -1 5326 l1 20 2965 0 2965
0 0 -40z"/>
<path d="M1539 5610 c0 -8 -1 -350 -1 -760 l-1 -745 136 -3 136 -3 3 58 3 57
35 -31 c79 -69 198 -113 309 -113 119 0 277 74 362 169 142 157 188 378 128
606 -30 112 -138 254 -237 312 -178 105 -397 92 -548 -32 -23 -19 -45 -35 -48
-35 -3 0 -7 120 -8 267 l-3 268 -132 0 c-111 0 -133 -2 -134 -15z m696 -670
c54 -26 110 -87 138 -149 16 -36 21 -67 21 -141 1 -84 -2 -101 -27 -152 -36
-73 -110 -141 -174 -159 -151 -43 -295 17 -360 149 -25 51 -27 68 -28 162 0
89 3 112 23 150 26 53 82 114 126 138 81 43 195 43 281 2z"/>
<path d="M3325 5204 c-100 -25 -183 -72 -260 -149 -119 -119 -164 -231 -169
-420 -8 -290 198 -533 484 -572 219 -29 412 28 539 160 74 76 76 71 -51 131
-101 48 -115 52 -133 40 -74 -52 -102 -66 -158 -80 -130 -34 -268 2 -342 88
-33 39 -78 135 -69 150 2 3 200 6 438 6 239 0 440 3 446 7 17 11 2 170 -25
261 -56 186 -198 322 -390 374 -78 21 -233 23 -310 4z m294 -249 c63 -29 110
-74 140 -134 l21 -41 -22 -1 c-28 -1 -560 -1 -571 0 -11 1 27 73 59 110 77 91
250 122 373 66z"/>
<path d="M5021 4506 c204 -270 294 -495 316 -790 34 -456 -62 -796 -310 -1098
l-39 -48 175 0 175 0 37 58 c114 179 198 400 229 603 25 161 26 501 2 626 -3
11 -7 36 -10 54 -27 173 -102 368 -213 558 l-45 77 -174 1 -174 0 31 -41z"/>
<path d="M4613 4072 c-89 -66 -87 -194 4 -257 100 -68 243 4 243 123 0 96 -53
153 -149 160 -50 3 -61 0 -98 -26z"/>
<path d="M1865 3706 c-181 -42 -329 -196 -380 -394 -21 -84 -25 -211 -8 -297
33 -170 155 -329 308 -402 72 -34 86 -37 181 -40 82 -2 114 1 161 18 62 21
121 56 166 97 l27 26 1 -40 c1 -21 1 -48 0 -59 -2 -19 4 -20 129 -19 71 1 134
2 138 3 5 0 9 246 9 546 l0 545 -29 1 c-15 0 -57 0 -93 0 -36 0 -85 0 -110 0
l-44 -1 2 -55 c2 -30 1 -55 0 -55 -2 0 -27 17 -56 39 -29 21 -66 46 -82 54
-84 42 -220 56 -320 33z m290 -265 c82 -36 148 -117 169 -206 13 -51 7 -156
-11 -214 -24 -78 -108 -163 -183 -185 -189 -56 -361 59 -388 260 -20 144 45
280 160 340 68 35 180 37 253 5z"/>
<path d="M3450 3701 c-69 -22 -105 -41 -163 -85 -26 -20 -48 -32 -51 -28 -2 4
-3 26 -2 50 1 24 -1 45 -5 48 -6 3 -158 7 -242 5 l-27 -1 2 -747 3 -748 125
-1 c69 0 130 1 135 3 6 2 10 96 9 257 l0 254 50 -38 c98 -73 177 -100 292
-100 233 0 455 191 504 435 13 64 16 197 5 255 -38 211 -167 372 -350 435 -71
25 -215 28 -285 6z m197 -261 c54 -24 120 -91 145 -148 29 -65 35 -185 13
-254 -23 -76 -79 -145 -145 -182 -49 -27 -64 -31 -135 -31 -95 0 -151 22 -210
80 -121 122 -121 356 1 479 35 34 97 67 144 76 55 10 140 1 187 -20z"/>
<path d="M4495 3360 c-6 -23 -126 -512 -131 -536 -2 -12 -17 -75 -34 -140 -16
-65 -26 -121 -21 -124 10 -6 260 -5 264 1 3 4 35 132 42 164 2 11 18 76 35
145 17 69 33 134 36 145 2 11 13 58 25 105 11 47 22 92 24 100 2 8 10 44 20
79 9 35 14 66 10 69 -3 3 -64 6 -135 6 -108 1 -131 -2 -135 -14z"/>
</g>
</svg>
